<svg width="18" height="18" viewBox="0 0 18 18" fill="none" xmlns="http://www.w3.org/2000/svg">
<path fill-rule="evenodd" clip-rule="evenodd" d="M1.99992 9.05211C1.99894 8.9195 2.05067 8.79193 2.14373 8.69747C2.2368 8.60301 2.36358 8.54938 2.49619 8.5484L14.2889 8.46055L11.1185 5.33808C11.0239 5.2449 10.9702 5.11796 10.9692 4.98518C10.9683 4.85241 11.0201 4.72469 11.1132 4.6301C11.2064 4.53552 11.3334 4.48183 11.4661 4.48084C11.5989 4.47985 11.7266 4.53164 11.8212 4.62483L15.8509 8.59492C15.8978 8.64102 15.9352 8.69592 15.9608 8.75648C15.9865 8.81703 15.9999 8.88205 16.0004 8.94782C16.0009 9.01359 15.9884 9.0788 15.9637 9.13973C15.9389 9.20066 15.9024 9.25611 15.8562 9.3029L11.8861 13.3326C11.7929 13.4272 11.666 13.4809 11.5332 13.4819C11.4004 13.4828 11.2727 13.431 11.1781 13.3379C11.0835 13.2447 11.0298 13.1177 11.0288 12.985C11.0278 12.8522 11.0796 12.7245 11.1728 12.6299L14.2963 9.46053L2.50363 9.54837C2.37103 9.54936 2.24346 9.49763 2.149 9.40456C2.05454 9.31149 2.00091 9.18471 1.99992 9.05211V9.05211Z" fill="white"/>
</svg>
